<svg xmlns="http://www.w3.org/2000/svg" viewBox="0 0 956.65 4.52" width="100%" height="100%" preserveAspectRatio="none"><path d="M578.41 1.81a3.33 3.33 0 0 0 1.06.37c4.42-.18 8.87.39 13.32-.34 2.11-.35 4.77-.22 7.21-.42 4.85-.42 9.91-.42 14.89-.48 11-.06 22 0 32.94 0 5.52 0 11-.32 16.57-.39s11.36.09 17-.06c3.49-.09 6.71.29 10 .52a70.9 70.9 0 0 0 14.49 0c1.06-.08 2.19 0 3.29 0 4.21 0 8.47.16 12.62 0 16.67-.76 33.38-.23 50.07-.4 6.72-.76 13.6-.33 20.41-.42a72 72 0 0 1 13.44.78 122.72 122.72 0 0 0 17 .48c2.59-.28 5-.78 7.21-1.13 2.08.1 4 .27 5.81.28h29.1c3.52 0 7 .31 10.53.39a29.41 29.41 0 0 0 3.53-.46c3.91.85 8.82-.2 12.43.51 4.54.89 8.28-.57 12.37 0l1.41.59a53.52 53.52 0 0 1-10.42.63c-10.79 0-21.59-.05-32.39 0-4.49 0-8.73-.6-13.28-.49s-9.08.68-13.82.51c-4.54-.16-9.15-.06-13.72 0-1 0-2 .43-2.83.38-1.91-.1-3.37.41-5 .43-1.48 0-3-.3-4.49-.38-1.25-.07-2.55 0-3.84 0H704.85c-8.64 0-17.23-.48-25.9-.46-4.7 0-9.14.6-13.83.51a132.61 132.61 0 0 0-13.68.05c-5.77.49-11.45.27-17.16.34s-11.34 0-17 0c-5.35 0-10.6.67-16 .42-3.73.77-7.75.37-11.63.41-5 .05-9.84.63-14.92.48s-10.37.24-15.34-.11c-5.39-.38-10.7-.3-16-.34s-11.08-.28-16.45 0c-11.94.72-23.95.59-35.79.28C474.31 3.83 457.64 4 441 4h-50c-2.59 0-5.18-.29-7.78-.41a48.61 48.61 0 0 1-7.3-.38 28.07 28.07 0 0 0-6 0c-4.54.26-8.82-.47-13.28-.45s-9 .31-13.13-.08c-4.87-.45-9.62-.26-14.42-.33s-10-.3-14.79 0c-9.76.7-19.5.16-29.23.37-6.35-.73-12.86-.37-19.31-.42s-12.9-.27-19.19.06c-8.12.43-16.19.32-24.28.36s-16.47 0-24.71 0a31.47 31.47 0 0 0-3.47.32c-3.59.36-7.08 1-11.17.17-3.35-.65-18.13-.89-21.92-.43a48.73 48.73 0 0 1-9 0 100.77 100.77 0 0 0-12 0c-9.55.65-19.12.22-28.67.41-2.41 0-4.68.59-7.23.41s-5 .28-7.39-.29c-2.15-.51-4.75.11-7.2-.5a20 20 0 0 0-6.37 0 23.49 23.49 0 0 1-7.53 0 18.7 18.7 0 0 0-5.33-.06c-5.5.94-10.8.28-16-.26a24.35 24.35 0 0 0-5.7-.15c-3 .56-6 .28-9 .35-2.55.06-5.13 0-7.68 0A23.16 23.16 0 0 1 25.51 2l3.17-.64h17.57c1.7 0 3.59.29 5.12-.39a10.62 10.62 0 0 1 2.5.13c.65.06 1.27.26 1.9.26 4.76 0 9.34.41 13.92.86a10.65 10.65 0 0 0 2.71 0c3.78-.72 7.77-.36 11.66-.39 8.41-.06 16.83 0 25.25 0 7.38 0 14.65-.74 22.06-.44 2.37-.64 5.38-.23 8-.8 1.53-.33 3.94-.06 5.95-.06 3.48 0 7.09-.23 10.41.05 8.08.69 16.3 0 24.25.45s15.83.27 23.73.35c8.05.07 16.19.3 24.14-.06 10.13-.45 20.31.06 30.29-.44 11.75-.63 23.47-.25 35.22-.36S317.23.17 329 .59c9.6.35 19.12.17 28.67.32 4.64.08 9.1-.6 13.83-.45a138 138 0 0 0 14.24 0c9.77-.74 19.51-.27 29.26-.38s19.78-.12 29.64 0c3.85.06 7.64.7 11.46 1.07 3.31.32 6.72.5 9.89 1a5.66 5.66 0 0 0 1.09 0c2.87-.18 5.52-.67 8.7-.27a58.23 58.23 0 0 0 8.51.25c5.15-.15 10.26-.58 15.47-.41C504 1 508.58 1.45 513 1.37a135.37 135.37 0 0 1 13.68.07c4.32.37 8.65 0 12.74.39 8.27.74 16.57.17 24.83.39 1.37 0 2.87-.23 4.09.31a5.91 5.91 0 0 0 2 .1c2.53-.22 4.98-.5 8.07-.82zm367.34-.47c-4.34.07-8.78-.24-12.78.82a20.31 20.31 0 0 1-3.76 0h-12.57a5 5 0 0 1-1.53-.59 1.88 1.88 0 0 1 .61-.23c1.87-.09 4 .24 5.3-.33a33.48 33.48 0 0 0 5.19.27 30.78 30.78 0 0 1 4-.37c5.06 0 10.13 0 15.2.08.1.01.22.24.34.35zM21.59 2.51h-20A5.91 5.91 0 0 1 0 1.91c3.77-.23 7.25-.13 10.69-.11s7.1-.33 10.9.71zm923.8-1.06l9.47-.62 1.79.71a17 17 0 0 1-2.44.57 23.08 23.08 0 0 1-8.82-.66z" fill="#1d4351"/></svg>