<?xml version="1.0" encoding="UTF-8"?>
<svg xmlns="http://www.w3.org/2000/svg" preserveAspectRatio="none" viewBox="0 0 1919 154" fill="none"><path d="M2.31672e-07 151L1.34325e-05 -5.05133e-09L1920 0.000167847L1920 149C1888.53 145.64 1857.06 147.27 1825.73 150.15C1795.08 152.97 1764.51 151.88 1733.88 151.15C1730.25 151.06 1729.13 149.35 1728.75 145.95C1728.34 142.36 1727.08 138.86 1726.2 135.33L1724.79 135.33C1724.11 136.96 1723.35 138.56 1722.79 140.23C1719.19 150.44 1716.71 151.81 1705.91 149.18C1703.83 148.67 1701.91 147.47 1699.81 147.06C1697.71 146.65 1694.81 145.87 1693.22 146.81C1687.22 150.26 1681 149.81 1674.44 149.81C1631.94 150.09 1589.46 150.633 1547 151.44C1518.83 151.95 1490.7 153.33 1462.57 153.64C1447.38 153.8 1432.17 151.99 1416.97 151.98C1379.32 151.98 1341.67 152.98 1304.03 152.64C1253.23 152.16 1202.44 150.44 1151.65 149.88C1121.99 149.56 1092.33 150.61 1062.65 150.67C1057.65 150.67 1052.65 148.67 1047.65 147.86C1045.71 147.496 1043.71 147.755 1041.93 148.6C1036.53 151.73 1032.14 149.93 1030.93 143.78C1030.53 142.558 1030.03 141.373 1029.42 140.24C1028.7 142.11 1028.01 143.14 1027.93 144.24C1027.53 149.86 1023.74 150.79 1019.23 150.63C1013.42 150.42 1007.6 149.86 1001.79 149.82C983.12 149.69 964.46 149.61 945.79 149.72C884.46 150.11 823.13 151.27 761.79 150.8C718.34 150.46 674.91 147.41 631.46 146.63C599.16 146.04 566.83 147.16 534.46 147.46C529.58 147.46 523.93 149.46 521.71 142.18C520.95 143.25 520.48 143.62 520.4 144.06C519.79 147.66 516.95 148.74 514.16 148.35C512.69 148.14 511.42 145.71 510.27 144.12C508.55 141.75 507.01 139.23 505.01 136.18C503.68 138.18 502.86 138.91 502.64 139.79C501.07 146.05 496.64 147.4 490.9 147.24C481.24 146.98 471.57 146.96 461.9 147.02C455.51 147.02 449.29 147.02 445.21 140.85C445.07 140.64 444.62 140.63 444.31 140.53C439.72 143.16 434.9 145.9 429.9 146.3C403.83 148.3 377.73 150.18 351.6 151.3C330.81 152.2 309.96 152.05 289.14 152.13C288.15 152.033 287.192 151.726 286.329 151.229C285.467 150.733 284.721 150.058 284.14 149.25C280.66 143.71 279.85 143.63 275.26 148.5C273.5 150.37 270.91 152.76 268.72 152.74C239.23 152.4 209.72 151.99 180.27 150.93C159.65 150.19 139.11 147.48 118.41 149.69C110.63 150.441 102.816 150.798 95 150.76C63.33 150.94 31.66 150.93 2.31672e-07 151Z" fill="#111111"/></svg>