<svg xmlns="http://www.w3.org/2000/svg" viewBox="-2 -2 34 34" width="200" height="200">
  <path
    d="M 1 2 L 1 1 L 5 0 L 10 1 L 11 0 L 11 1 L 14 0 L 17 1 L 21 0 L 27 1 L 29 1 L 30 4 L 29 6 L 30 7 L 29 9 L 30 12 L 29 14 L 30 18 L 29 21 L 30 24 L 29 27 L 29 30 L 26 29 L 24 30 L 22 29 L 18 30 L 15 29 L 14 30 L 11 29 L 9 30 L 5 29 L 2 30 L 0 29 L 1 27 L 0 23 L 1 21 L 1 18 L 0 15 L 1 13 L 0 9 L 1 6 L 0 4 Z"
    fill="#ffffffff"
    stroke="none"
  />

<path
    d="M 3 3 L 6 2 L 8 3 L 13 2 L 14 2 L 17 3 L 18 2 L 19 3 L 23 2 L 27 3 L 28 5 L 27 6 L 27 8 L 28 12 L 27 17 L 28 20 L 27 23 L 28 26 L 27 27 L 25 28 L 23 27 L 19 28 L 18 27 L 16 28 L 11 27 L 9 27 L 7 28 L 5 27 L 3 28 L 2 26 L 3 23 L 2 20 L 3 17 L 3 16 L 2 14 L 3 13 L 2 10 L 2 9 L 3 7 L 2 4 Z"
 fill="#333333ff"
 stroke="none"
  />
</svg>

